<svg width="240" height="183" viewBox="0 0 240 183" fill="none" xmlns="http://www.w3.org/2000/svg">
<path d="M12.001 34.3913V50.5652L21.3923 49V41.1739L112.697 10.5691L114.784 9.86957V1L112.717 1.67149L12.001 34.3913Z" fill="#F0572D" stroke="#F0572D" stroke-width="1.04348"/>
<path d="M218.61 34.3913V75.087L209.219 73.5217V41.1739L115.828 9.86957V1L218.61 34.3913Z" fill="#F0572D" stroke="#F0572D" stroke-width="1.04348"/>
<path d="M219.13 148.477V132.303L209.739 133.869V141.695L118.434 172.3L116.347 172.999V181.869L118.414 181.197L219.13 148.477Z" fill="#F0572D" stroke="#F0572D" stroke-width="1.04348"/>
<path d="M12.5205 148.477V132.825L21.9118 134.39V141.695L115.303 172.999V181.869L12.5205 148.477Z" fill="#F0572D" stroke="#F0572D" stroke-width="1.04348"/>
<path d="M7.59702 127.842C7.27112 127.842 7.04299 127.728 6.91263 127.5C6.78226 127.272 6.71708 127.028 6.71708 126.767C6.74967 126.213 6.88004 125.903 7.10817 125.838C7.3363 125.773 7.61332 125.74 7.93922 125.74C8.81917 125.74 9.48727 125.561 9.94354 125.203C10.3998 124.844 10.7583 124.372 11.019 123.785C11.3123 123.198 11.5894 122.595 11.8501 121.976L20.4051 101.738C20.731 100.955 20.7962 100.369 20.6006 99.9776C20.4051 99.554 20.0792 99.2606 19.6229 99.0977C19.1666 98.9022 18.6615 98.7555 18.1074 98.6577C17.6186 98.56 17.2927 98.4785 17.1297 98.4133C16.9668 98.3155 16.8853 98.0222 16.8853 97.5334C16.8853 96.9793 17.0808 96.686 17.4719 96.6534C17.863 96.5882 18.3193 96.5556 18.8407 96.5556C20.1769 96.5556 21.3176 96.686 22.2627 96.9467C23.2078 97.2075 24.0226 97.7126 24.707 98.4622C25.3914 99.1792 26.0269 100.271 26.6135 101.738L34.8263 121.976C35.0545 122.53 35.2989 123.101 35.5596 123.687C35.8203 124.274 36.1625 124.763 36.5862 125.154C37.0425 125.512 37.6128 125.708 38.2972 125.74C38.6557 125.74 38.9327 125.773 39.1283 125.838C39.3564 125.903 39.4868 126.213 39.5194 126.767C39.5194 127.028 39.4379 127.272 39.2749 127.5C39.1446 127.728 38.9327 127.842 38.6394 127.842C37.5965 127.777 36.684 127.728 35.9018 127.696C35.1196 127.696 34.2397 127.696 33.262 127.696C31.3392 127.696 29.3185 127.745 27.2002 127.842C26.8743 127.842 26.6461 127.728 26.5158 127.5C26.3854 127.272 26.3202 127.028 26.3202 126.767C26.3528 126.213 26.4832 125.903 26.7113 125.838C26.9394 125.773 27.2165 125.74 27.5424 125.74C29.1393 125.74 30.0029 125.447 30.1333 124.86C30.2963 124.274 30.1496 123.312 29.6933 121.976L28.0312 117.919H15.9565C15.4676 119.157 15.1091 120.053 14.881 120.607C14.6854 121.161 14.5551 121.52 14.4899 121.683C14.4573 121.846 14.4247 121.944 14.3921 121.976C14.0336 123.084 13.8381 123.915 13.8055 124.469C13.8055 124.991 14.0662 125.333 14.5877 125.496C15.1417 125.659 16.0542 125.74 17.3253 125.74C17.6838 125.74 17.9608 125.773 18.1563 125.838C18.3845 125.903 18.5148 126.213 18.5474 126.767C18.5474 127.028 18.4659 127.272 18.303 127.5C18.1726 127.728 17.9608 127.842 17.6675 127.842C16.6246 127.777 15.712 127.728 14.9299 127.696C14.1803 127.696 13.3166 127.696 12.3389 127.696C11.6871 127.696 11.1331 127.696 10.6768 127.696C10.2531 127.728 9.81317 127.745 9.35691 127.745C8.90064 127.777 8.31401 127.81 7.59702 127.842ZM16.8853 115.817H27.1513L22.2138 103.253H22.0672L16.8853 115.817ZM55.073 128.674C52.4658 128.674 50.2822 128.217 48.5223 127.305C46.7624 126.392 45.4425 125.219 44.5626 123.785C43.6827 122.351 43.2427 120.836 43.2427 119.239V102.569C43.2427 101.949 43.1775 101.363 43.0471 100.809C42.9494 100.222 42.6886 99.7495 42.265 99.391C41.8413 98.9999 41.108 98.8044 40.0651 98.8044C39.7392 98.8044 39.4622 98.7718 39.2341 98.7066C39.0059 98.6414 38.8756 98.3318 38.843 97.7778C38.843 97.5171 38.9082 97.2726 39.0385 97.0445C39.1689 96.8164 39.397 96.7023 39.7229 96.7023C40.7658 96.7349 41.7435 96.7675 42.6561 96.8001C43.5686 96.8327 44.5137 96.849 45.4914 96.849C47.4794 96.849 49.5163 96.8001 51.6021 96.7023C51.928 96.7023 52.1562 96.8164 52.2865 97.0445C52.4169 97.2726 52.4821 97.5171 52.4821 97.7778C52.4495 98.2666 52.3517 98.56 52.1888 98.6577C52.0258 98.7555 51.7977 98.8044 51.5044 98.8044C50.3963 98.8044 49.5978 98.9836 49.109 99.3421C48.6527 99.668 48.3757 100.124 48.2779 100.711C48.1801 101.265 48.115 101.884 48.0824 102.569V117.821C48.0824 118.668 48.1638 119.564 48.3268 120.51C48.5223 121.422 48.8808 122.286 49.4023 123.101C49.9237 123.883 50.6896 124.535 51.6999 125.056C52.7428 125.545 54.1279 125.789 55.8552 125.789C58.0713 125.789 59.766 125.431 60.9393 124.714C62.1451 123.964 62.9762 123.035 63.4325 121.927C63.8887 120.819 64.1169 119.679 64.1169 118.505V105.648C64.1169 103.497 64.0354 101.949 63.8724 101.004C63.7095 100.027 63.351 99.4236 62.7969 99.1955C62.2755 98.9347 61.4607 98.8044 60.3527 98.8044C60.0268 98.8044 59.7497 98.7718 59.5216 98.7066C59.2935 98.6414 59.1631 98.3318 59.1305 97.7778C59.1305 97.5171 59.1957 97.2726 59.3261 97.0445C59.4564 96.8164 59.6846 96.7023 60.0105 96.7023C61.0534 96.7349 61.9822 96.7675 62.7969 96.8001C63.6117 96.8327 64.5079 96.849 65.4857 96.849C66.4634 96.849 67.3596 96.8327 68.1744 96.8001C68.9891 96.7675 69.918 96.7349 70.9608 96.7023C71.2867 96.7023 71.5149 96.8164 71.6452 97.0445C71.7756 97.2726 71.8408 97.5171 71.8408 97.7778C71.8082 98.2666 71.7104 98.56 71.5475 98.6577C71.3845 98.7555 71.1564 98.8044 70.8631 98.8044C69.9831 98.8044 69.2661 98.8533 68.7121 98.951C68.1907 99.0488 67.7833 99.3095 67.49 99.7332C67.2292 100.124 67.05 100.776 66.9522 101.689C66.887 102.569 66.8545 103.791 66.8545 105.355V118.994C66.8545 120.721 66.4797 122.204 65.7301 123.443C65.0131 124.681 64.0517 125.691 62.8458 126.474C61.6726 127.223 60.4015 127.777 59.0327 128.136C57.6639 128.494 56.344 128.674 55.073 128.674ZM81.4579 127.842C81.132 127.842 80.9039 127.728 80.7735 127.5C80.6431 127.272 80.5779 127.028 80.5779 126.767C80.6105 126.213 80.7409 125.903 80.969 125.838C81.1972 125.773 81.4742 125.74 81.8001 125.74C82.843 125.74 83.5763 125.561 83.9999 125.203C84.4236 124.812 84.6843 124.339 84.7821 123.785C84.9125 123.198 84.9777 122.595 84.9777 121.976V98.6577H81.6045C80.4965 98.6903 79.6328 98.9347 79.0136 99.391C78.3944 99.8147 77.9381 100.499 77.6448 101.444C77.3515 102.357 77.0908 103.546 76.8626 105.013C76.83 105.306 76.6182 105.534 76.2271 105.697C75.8686 105.828 75.5101 105.893 75.1516 105.893C74.9235 105.893 74.6628 105.811 74.3695 105.648C74.1087 105.485 73.9784 105.241 73.9784 104.915L74.125 98.0222C74.125 97.5659 74.2554 97.2563 74.5161 97.0934C74.7769 96.9304 75.0865 96.849 75.445 96.849H99.35C99.7085 96.849 100.002 96.9304 100.23 97.0934C100.491 97.2563 100.621 97.5659 100.621 98.0222L100.817 104.915C100.817 105.241 100.67 105.485 100.377 105.648C100.116 105.811 99.8552 105.893 99.5945 105.893C99.2686 105.893 98.9264 105.828 98.5679 105.697C98.2094 105.534 97.9975 105.306 97.9324 105.013C97.7042 103.546 97.4272 102.357 97.1013 101.444C96.808 100.499 96.3517 99.8147 95.7325 99.391C95.1459 98.9347 94.2822 98.6903 93.1416 98.6577H89.8173V121.976C89.8499 122.595 89.9151 123.198 90.0129 123.785C90.1107 124.339 90.3714 124.812 90.795 125.203C91.2513 125.561 91.9846 125.74 92.9949 125.74C93.3208 125.74 93.5978 125.773 93.826 125.838C94.0541 125.903 94.1845 126.213 94.217 126.767C94.217 127.028 94.1519 127.272 94.0215 127.5C93.8911 127.728 93.663 127.842 93.3371 127.842C92.2942 127.777 91.3002 127.728 90.3551 127.696C89.4425 127.696 88.5137 127.696 87.5686 127.696C85.6132 127.696 83.5763 127.745 81.4579 127.842ZM119.912 128.674C117.533 128.674 115.382 128.234 113.459 127.354C111.536 126.474 109.89 125.284 108.521 123.785C107.153 122.286 106.11 120.591 105.393 118.701C104.676 116.778 104.317 114.774 104.317 112.688C104.317 109.983 104.774 107.588 105.686 105.502C106.631 103.416 107.87 101.656 109.401 100.222C110.933 98.7881 112.612 97.7126 114.437 96.9956C116.294 96.246 118.119 95.8712 119.912 95.8712C122.356 95.8712 124.54 96.3112 126.462 97.1912C128.418 98.0711 130.08 99.2606 131.449 100.76C132.818 102.259 133.861 103.97 134.577 105.893C135.294 107.783 135.653 109.755 135.653 111.808C135.653 114.513 135.18 116.908 134.235 118.994C133.29 121.08 132.035 122.84 130.471 124.274C128.907 125.708 127.196 126.8 125.338 127.549C123.513 128.299 121.704 128.674 119.912 128.674ZM119.863 126.523C122.177 126.523 124.067 125.838 125.534 124.469C127 123.101 128.076 121.308 128.76 119.092C129.477 116.843 129.836 114.415 129.836 111.808C129.836 109.364 129.461 107.099 128.711 105.013C127.994 102.894 126.902 101.2 125.436 99.9288C123.969 98.6251 122.112 97.9733 119.863 97.9733C117.582 97.9733 115.708 98.6577 114.241 100.027C112.807 101.363 111.748 103.139 111.063 105.355C110.379 107.539 110.037 109.934 110.037 112.541C110.037 114.986 110.379 117.283 111.063 119.434C111.78 121.553 112.872 123.264 114.339 124.567C115.805 125.871 117.647 126.523 119.863 126.523ZM140.328 127.842C140.035 127.842 139.823 127.728 139.693 127.5C139.562 127.272 139.497 127.028 139.497 126.767C139.53 126.213 139.66 125.903 139.888 125.838C140.116 125.773 140.393 125.74 140.719 125.74C141.762 125.74 142.495 125.561 142.919 125.203C143.343 124.812 143.603 124.339 143.701 123.785C143.832 123.198 143.897 122.595 143.897 121.976V102.569C143.897 101.949 143.832 101.363 143.701 100.809C143.603 100.222 143.343 99.7495 142.919 99.391C142.495 98.9999 141.762 98.8044 140.719 98.8044C140.393 98.8044 140.116 98.7718 139.888 98.7066C139.66 98.6414 139.53 98.3318 139.497 97.7778C139.497 97.5171 139.562 97.2726 139.693 97.0445C139.823 96.8164 140.035 96.7023 140.328 96.7023C141.404 96.7349 142.398 96.7675 143.31 96.8001C144.223 96.8327 145.168 96.849 146.145 96.849C148.133 96.849 150.17 96.8001 152.256 96.7023C152.582 96.7023 152.81 96.8164 152.941 97.0445C153.071 97.2726 153.136 97.5171 153.136 97.7778C153.104 98.3318 152.973 98.6414 152.745 98.7066C152.517 98.7718 152.24 98.8044 151.914 98.8044C150.904 98.8044 150.17 98.9999 149.714 99.391C149.29 99.7495 149.03 100.222 148.932 100.809C148.834 101.363 148.769 101.949 148.736 102.569V122.709C148.769 123.133 148.834 123.589 148.932 124.078C149.03 124.567 149.307 124.974 149.763 125.3C150.252 125.626 151.05 125.773 152.158 125.74H156.558C157.699 125.708 158.562 125.529 159.149 125.203C159.768 124.844 160.257 124.258 160.616 123.443C160.974 122.628 161.365 121.504 161.789 120.07C161.919 119.744 162.131 119.532 162.424 119.434C162.75 119.336 163.092 119.32 163.451 119.385C163.712 119.418 163.972 119.532 164.233 119.727C164.526 119.923 164.657 120.184 164.624 120.51L163.647 126.669C163.549 127.125 163.386 127.419 163.158 127.549C162.962 127.647 162.652 127.696 162.229 127.696H146.194C145.217 127.696 144.255 127.696 143.31 127.696C142.398 127.728 141.404 127.777 140.328 127.842ZM182.157 128.674C179.549 128.674 177.366 128.217 175.606 127.305C173.846 126.392 172.526 125.219 171.646 123.785C170.766 122.351 170.326 120.836 170.326 119.239V102.569C170.326 101.949 170.261 101.363 170.131 100.809C170.033 100.222 169.772 99.7495 169.349 99.391C168.925 98.9999 168.192 98.8044 167.149 98.8044C166.823 98.8044 166.546 98.7718 166.318 98.7066C166.09 98.6414 165.959 98.3318 165.927 97.7778C165.927 97.5171 165.992 97.2726 166.122 97.0445C166.252 96.8164 166.481 96.7023 166.806 96.7023C167.849 96.7349 168.827 96.7675 169.74 96.8001C170.652 96.8327 171.597 96.849 172.575 96.849C174.563 96.849 176.6 96.8001 178.686 96.7023C179.012 96.7023 179.24 96.8164 179.37 97.0445C179.5 97.2726 179.566 97.5171 179.566 97.7778C179.533 98.2666 179.435 98.56 179.272 98.6577C179.109 98.7555 178.881 98.8044 178.588 98.8044C177.48 98.8044 176.681 98.9836 176.193 99.3421C175.736 99.668 175.459 100.124 175.361 100.711C175.264 101.265 175.199 101.884 175.166 102.569V117.821C175.166 118.668 175.247 119.564 175.41 120.51C175.606 121.422 175.964 122.286 176.486 123.101C177.007 123.883 177.773 124.535 178.783 125.056C179.826 125.545 181.211 125.789 182.939 125.789C185.155 125.789 186.85 125.431 188.023 124.714C189.229 123.964 190.06 123.035 190.516 121.927C190.972 120.819 191.2 119.679 191.2 118.505V105.648C191.2 103.497 191.119 101.949 190.956 101.004C190.793 100.027 190.435 99.4236 189.881 99.1955C189.359 98.9347 188.544 98.8044 187.436 98.8044C187.11 98.8044 186.833 98.7718 186.605 98.7066C186.377 98.6414 186.247 98.3318 186.214 97.7778C186.214 97.5171 186.279 97.2726 186.41 97.0445C186.54 96.8164 186.768 96.7023 187.094 96.7023C188.137 96.7349 189.066 96.7675 189.881 96.8001C190.695 96.8327 191.592 96.849 192.569 96.849C193.547 96.849 194.443 96.8327 195.258 96.8001C196.073 96.7675 197.002 96.7349 198.044 96.7023C198.37 96.7023 198.598 96.8164 198.729 97.0445C198.859 97.2726 198.924 97.5171 198.924 97.7778C198.892 98.2666 198.794 98.56 198.631 98.6577C198.468 98.7555 198.24 98.8044 197.947 98.8044C197.067 98.8044 196.35 98.8533 195.796 98.951C195.274 99.0488 194.867 99.3095 194.574 99.7332C194.313 100.124 194.134 100.776 194.036 101.689C193.971 102.569 193.938 103.791 193.938 105.355V118.994C193.938 120.721 193.563 122.204 192.814 123.443C192.097 124.681 191.135 125.691 189.929 126.474C188.756 127.223 187.485 127.777 186.116 128.136C184.748 128.494 183.428 128.674 182.157 128.674ZM201.013 127.842C200.687 127.842 200.459 127.728 200.329 127.5C200.198 127.272 200.133 127.028 200.133 126.767C200.166 126.213 200.296 125.903 200.524 125.838C200.752 125.773 201.029 125.74 201.355 125.74C202.203 125.74 202.887 125.643 203.408 125.447C203.93 125.252 204.419 124.909 204.875 124.42C205.364 123.932 205.902 123.264 206.488 122.416L213.577 112.346L207.319 102.52C206.505 101.281 205.722 100.401 204.973 99.8799C204.223 99.3258 203.327 98.9347 202.284 98.7066C201.828 98.6088 201.502 98.5274 201.306 98.4622C201.143 98.397 201.062 98.1037 201.062 97.5822C201.062 97.0282 201.258 96.7349 201.649 96.7023C202.04 96.6371 202.496 96.6045 203.017 96.6045C204.549 96.6045 205.853 96.7675 206.928 97.0934C208.036 97.4193 209.014 97.957 209.861 98.7066C210.741 99.4562 211.605 100.45 212.452 101.689L216.461 108.239L221.301 101.2C222.018 100.124 222.115 99.4562 221.594 99.1955C221.105 98.9347 220.29 98.8044 219.15 98.8044C218.824 98.8044 218.547 98.7718 218.319 98.7066C218.09 98.6414 217.96 98.3318 217.928 97.7778C217.928 97.5171 217.993 97.2726 218.123 97.0445C218.253 96.8164 218.465 96.7023 218.759 96.7023C219.801 96.7349 220.698 96.7675 221.447 96.8001C222.229 96.8327 223.109 96.849 224.087 96.849C225.065 96.849 225.863 96.8327 226.483 96.8001C227.134 96.7675 227.982 96.7349 229.025 96.7023C229.35 96.7023 229.579 96.8164 229.709 97.0445C229.839 97.2726 229.905 97.5171 229.905 97.7778C229.872 98.3318 229.742 98.6414 229.513 98.7066C229.318 98.7718 229.041 98.8044 228.682 98.8044C227.868 98.8044 227.183 98.9022 226.629 99.0977C226.075 99.2932 225.57 99.6354 225.114 100.124C224.657 100.613 224.136 101.281 223.549 102.129L217.83 110.244L226.336 122.367C226.89 123.182 227.493 123.948 228.145 124.665C228.829 125.382 229.709 125.74 230.784 125.74C231.143 125.74 231.42 125.773 231.616 125.838C231.844 125.903 231.974 126.213 232.007 126.767C232.007 127.028 231.941 127.272 231.811 127.5C231.681 127.728 231.469 127.842 231.176 127.842C230.133 127.777 229.139 127.728 228.194 127.696C227.248 127.696 226.287 127.696 225.309 127.696C223.452 127.696 221.464 127.745 219.345 127.842C219.019 127.842 218.791 127.728 218.661 127.5C218.53 127.272 218.465 127.028 218.465 126.767C218.498 126.213 218.628 125.903 218.856 125.838C219.084 125.773 219.362 125.74 219.687 125.74C220.665 125.74 221.284 125.496 221.545 125.007C221.806 124.518 221.708 123.964 221.252 123.345L214.994 114.399L208.737 123.345C208.02 124.388 207.922 125.056 208.444 125.349C208.965 125.61 209.78 125.74 210.888 125.74C211.246 125.74 211.524 125.773 211.719 125.838C211.947 125.903 212.078 126.213 212.11 126.767C212.11 127.028 212.045 127.272 211.915 127.5C211.784 127.728 211.572 127.842 211.279 127.842C210.236 127.777 209.324 127.728 208.541 127.696C207.792 127.696 206.928 127.696 205.951 127.696C204.973 127.696 204.158 127.696 203.506 127.696C202.887 127.728 202.056 127.777 201.013 127.842Z" fill="black"/>
<path d="M110.963 54.4865C91.7635 51.1473 75.4852 54.1386 69.7461 56.0517L110.963 61.7908L152.181 67.53C146.442 64.5734 130.163 57.8256 110.963 54.4865Z" fill="url(#paint0_linear_4223_16974)"/>
<path d="M121.92 79.5303C88.9461 78.6955 64.007 69.7912 55.6592 65.4434C58.9763 66.8347 71.4463 70.139 94.7896 72.226C123.969 74.8347 154.79 73.2694 194.442 76.9216C226.164 79.8434 236.181 93.0955 237.224 99.3564C233.051 96.7477 221.572 90.5912 209.051 86.8347C193.398 82.139 163.137 80.5738 121.92 79.5303Z" fill="black"/>
<path d="M8.18445 64.3997C6.61923 57.617 -6.42422 57.617 4.01054 57.617C48.3541 57.617 47.8324 45.6173 95.8367 44.0518C113.321 43.8509 127.632 47.5205 138.619 52.1088C156.156 59.432 165.228 69.0953 165.228 69.0953C165.228 69.0953 136.532 49.2692 95.8367 49.2692C55.141 49.2692 30.6192 64.3997 30.6192 64.3997C42.6193 72.2257 80.7062 81.0953 80.7062 81.0953C44.7062 79.0083 14.4453 66.4866 14.4453 66.4866C13.9236 79.0084 8.4703 79.0982 7.69701 85.2692C6.99914 90.8383 7.14097 95.1823 7.14097 95.1823C1.40184 82.6605 9.74966 71.1823 8.18445 64.3997Z" fill="black"/>
<path d="M116.478 138L119.055 145.931H127.395L120.648 150.833L123.225 158.764L116.478 153.863L109.732 158.764L112.309 150.833L105.562 145.931H113.901L116.478 138Z" fill="#F0572D"/>
<path d="M134.5 142L135.959 146.491L140.682 146.491L136.861 149.267L138.321 153.759L134.5 150.983L130.679 153.759L132.139 149.267L128.318 146.491L133.041 146.491L134.5 142Z" fill="#F0572D"/>
<path d="M85.5 142L86.9595 146.491L91.6819 146.491L87.8615 149.267L89.3206 153.759L85.5 150.983L81.6794 153.759L83.1385 149.267L79.3181 146.491L84.0405 146.491L85.5 142Z" fill="#F0572D"/>
<path d="M147.5 142L148.959 146.491L153.682 146.491L149.861 149.267L151.321 153.759L147.5 150.983L143.679 153.759L145.139 149.267L141.318 146.491L146.041 146.491L147.5 142Z" fill="#F0572D"/>
<path d="M98.5 142L99.9595 146.491L104.682 146.491L100.861 149.267L102.321 153.759L98.5 150.983L94.6794 153.759L96.1385 149.267L92.3181 146.491L97.0405 146.491L98.5 142Z" fill="#F0572D"/>
<defs>
<linearGradient id="paint0_linear_4223_16974" x1="110.963" y1="52.9824" x2="110.963" y2="67.53" gradientUnits="userSpaceOnUse">
<stop stop-color="#333333"/>
<stop offset="0.55" stop-color="white" stop-opacity="0"/>
</linearGradient>
</defs>
</svg>
