<svg width="75" height="14" viewBox="0 0 75 14" fill="none" xmlns="http://www.w3.org/2000/svg">
<path d="M52.2778 0L53.9117 4.83688H59.1994L54.9216 7.82624L56.5555 12.6631L52.2778 9.67376L48 12.6631L49.634 7.82624L45.3562 4.83688H50.6438L52.2778 0Z" fill="#F4C728"/>
<path d="M67.2778 0L68.9117 4.83688H74.1994L69.9216 7.82624L71.5555 12.6631L67.2778 9.67376L63 12.6631L64.634 7.82624L60.3562 4.83688H65.6438L67.2778 0Z" fill="#F4C728"/>
<path d="M37.2778 0L38.9117 4.83688H44.1994L39.9216 7.82624L41.5555 12.6631L37.2778 9.67376L33 12.6631L34.634 7.82624L30.3562 4.83688H35.6438L37.2778 0Z" fill="#F4C728"/>
<path d="M22.2778 0L23.9117 4.83688H29.1994L24.9216 7.82624L26.5555 12.6631L22.2778 9.67376L18 12.6631L19.634 7.82624L15.3562 4.83688H20.6438L22.2778 0Z" fill="#F4C728"/>
<path d="M7.27778 0L8.91174 4.83688H14.1994L9.92159 7.82624L11.5555 12.6631L7.27778 9.67376L3.00001 12.6631L4.63397 7.82624L0.3562 4.83688H5.64382L7.27778 0Z" fill="#F4C728"/>
</svg>
